:SAMPLES-PER-SECOND 30
:FULLY-SPECIFIED
:DEGREES
97
root  34.96443681 36.5410602 -14.52061661 11.03422928 5.427258968 3.331333876
lowerback  -7.915229797 2.417880058 2.344600201
upperback  -4.176670074 2.702709913 -4.12116003
thorax  0.4200859964 1.111719966 -5.374110222
lowerneck  -14.93190002 1.502959967 2.488519907
upperneck  10.63689995 0.593603909 5.335450172
head  5.662230015 0.7388520241 1.33378005
lclavicle  0 -4.497500157e-015 -2.743230041e-014
lhumerus  -44.25370026 26.47509956 68.27279663
lradius  -0.4908728302 -6.507048965e-006 27.54350281
lwrist  4.824992743e-007 -3.790274832e-007 -30.9029007
lhand  -3.515213817e-031 -37.00920105 -10.67479992
lfingers  90 7.125020027 -90
lthumb  94.86723328 -25.50673676 101.1858749
rclavicle  0 -4.497500157e-015 -2.743230041e-014
rhumerus  40.21159744 4.437641144 -57.48300171
rradius  -5.16745672e-007 2.214343908e-008 82.14279938
rwrist  1.129822067e-006 0.001802438172 -176.9409943
rhand  -3.081193125e-031 4.240600109 -6.721439838
rfingers  -90 -7.125020027 -90
rthumb  -84.69727325 -9.223480225 -59.92655563
rfemur  -12.95954704 13.00788879 14.07075787
rtibia  -1.168202043 1.438510656 20.79715729
rfoot  -0.795440495 -17.12462234 -41.58539963
rtoes  4.173572063 19.57252693 -102.2858505
lfemur  -10.57044125 -18.9751606 -18.60277557
ltibia  3.30722785 2.039002657 14.15313148
lfoot  0.5573633909 -28.81711197 31.47502327
ltoes  -8.487998962 -18.17665291 -115.5666046
98
root  34.96465908 36.53915585 -14.52509362 11.02909374 5.657929897 3.393656969
lowerback  -7.875020504 2.440740108 2.323400259
upperback  -4.140069962 2.740550041 -4.145740032
thorax  0.440203011 1.133849978 -5.384960175
lowerneck  -15.27060032 1.417860031 2.589890003
upperneck  10.71759987 0.441814959 5.294089794
head  5.747300148 0.672442019 1.294610023
lclavicle  0 -4.497500157e-015 -2.743230041e-014
lhumerus  -44.00019836 26.44729996 68.31340027
lradius  -0.49093467 -6.507048965e-006 27.4253006
lwrist  4.824992743e-007 -3.790274832e-007 -30.85890007
lhand  -3.520417595e-031 -36.9980011 -10.61380005
lfingers  90 7.125020027 -90
lthumb  94.84887695 -25.44721985 101.1682587
rclavicle  0 -4.497500157e-015 -2.743230041e-014
rhumerus  41.61120224 4.081569672 -56.83240128
rradius  -5.16745672e-007 2.214343908e-008 81.43470001
rwrist  1.129822067e-006 0.001802438172 -176.852005
rhand  -3.082964053e-031 4.238279819 -6.695139885
rfingers  -90 -7.125020027 -90
rthumb  -84.68448639 -9.246095657 -59.92666626
rfemur  -12.97658539 12.92838764 14.07729912
rtibia  -1.229875803 1.476780415 20.9292717
rfoot  -0.8787614703 -17.03732109 -41.72113037
rtoes  4.174742222 19.57292747 -102.2893448
lfemur  -10.49560928 -19.11647987 -18.67948341
ltibia  3.396956682 2.046259403 14.01586342
lfoot  0.5510159135 -28.77540207 31.40688896
ltoes  -8.468053818 -18.18570518 -115.5026855
99
root  34.96324734 36.53704125 -14.52703401 11.02007103 5.889929771 3.428137779
lowerback  -7.853919506 2.486179829 2.37005949
upperback  -4.131720066 2.79934001 -4.207419872
thorax  0.4487549961 1.162690043 -5.471730232
lowerneck  -15.46899986 1.313979983 2.613790035
upperneck  10.76029968 0.2786040902 5.322159767
head  5.796740055 0.5991860032 1.286679864
lclavicle  0 -4.497500157e-015 -2.743230041e-014
lhumerus  -43.82419968 26.2493 68.38500214
lradius  -0.4909958243 -6.507048965e-006 27.3941021
lwrist  4.824992743e-007 -3.790274832e-007 -30.7772007
lhand  -3.516419995e-031 -37.04859924 -10.65470028
lfingers  90 7.125020027 -90
lthumb  94.88130188 -25.48556709 101.2260132
rclavicle  0 -4.497500157e-015 -2.743230041e-014
rhumerus  42.69539642 3.703910589 -56.66650009
rradius  -5.16745672e-007 2.214343908e-008 80.79019928
rwrist  1.129822067e-006 0.001802438172 -176.6690063
rhand  -3.085210839e-031 4.305830002 -6.661159992
rfingers  -90 -7.125020027 -90
rthumb  -84.65094757 -9.279388428 -59.85798264
rfemur  -12.96391678 12.84081173 14.10407639
rtibia  -1.270968795 1.508819342 21.00241852
rfoot  -0.9338592291 -16.97028542 -41.84030914
rtoes  4.164597988 19.57331848 -102.2590714
lfemur  -10.43622589 -19.21095085 -18.71414375
ltibia  3.464887619 2.075291157 13.92152691
lfoot  0.5616403222 -28.79959106 31.33919525
ltoes  -8.454794884 -18.19170761 -115.4602127
100
root  34.95973902 36.53531112 -14.52878817 11.01977348 6.129770279 3.455640554
lowerback  -7.84831953 2.538520098 2.507799625
upperback  -4.157410145 2.85619998 -4.304570198
thorax  0.4365020096 1.186040044 -5.648459911
lowerneck  -15.48349953 1.21487999 2.580970049
upperneck  10.77060032 0.1296419501 5.437029839
head  5.805210114 0.5327410102 1.314499974
lclavicle  0 -4.497500157e-015 -2.743230041e-014
lhumerus  -43.77700043 26.14949989 68.30210114
lradius  -0.4910566807 -6.507048965e-006 27.38740158
lwrist  4.824992743e-007 -3.790274832e-007 -30.74830055
lhand  -3.515207994e-031 -37.05260086 -10.66870022
lfingers  90 7.125020027 -90
lthumb  94.88621521 -25.49916267 101.231636
rclavicle  0 -4.497500157e-015 -2.743230041e-014
rhumerus  43.82949448 3.393591166 -56.4292984
rradius  -5.16745672e-007 2.214343908e-008 80.01830292
rwrist  1.129822067e-006 0.001802438172 -176.4049988
rhand  -3.089516612e-031 4.258709908 -6.59758997
rfingers  -90 -7.125020027 -90
rthumb  -84.63000488 -9.331672668 -59.89870834
rfemur  -12.97241116 12.79632664 14.14302444
rtibia  -1.31787312 1.578954339 21.08998108
rfoot  -0.9780512452 -16.82364655 -41.96015549
rtoes  4.195169449 19.57369614 -102.3503189
lfemur  -10.42971516 -19.32201958 -18.72057152
ltibia  3.499691486 2.117330074 13.8908205
lfoot  0.5786576867 -28.88341713 31.27235222
ltoes  -8.496603012 -18.17273903 -115.5941925
101
root  34.94718957 36.53449712 -14.52489838 11.03479195 6.372732639 3.485034227
lowerback  -7.794799805 2.54982996 2.629649878
upperback  -4.187600136 2.862020016 -4.344930172
thorax  0.3839020133 1.184759974 -5.762639999
lowerneck  -15.4616003 1.152169943 2.559710026
upperneck  10.74849987 0.04805649817 5.460669994
head  5.795939922 0.4927590191 1.317350149
lclavicle  0 -4.497500157e-015 -2.743230041e-014
lhumerus  -43.8791008 26.3593998 68.10749817
lradius  -0.491117686 -6.507048965e-006 27.34289932
lwrist  4.824992743e-007 -3.790274832e-007 -30.93260002
lhand  -3.515580018e-031 -37.03239822 -10.66709995
lfingers  90 7.125020027 -90
lthumb  94.87641144 -25.49836922 101.209877
rclavicle  0 -4.497500157e-015 -2.743230041e-014
rhumerus  44.98110199 3.231009483 -56.13499832
rradius  -5.16745672e-007 2.214343908e-008 79.2071991
rwrist  1.129822067e-006 0.001802438172 -176.1159973
rhand  -3.11017567e-031 4.327320099 -6.290150166
rfingers  -90 -7.125020027 -90
rthumb  -84.45665741 -9.601380348 -59.8058815
rfemur  -12.97506714 12.58855629 14.20606899
rtibia  -1.360303998 1.56766355 21.15740776
rfoot  -1.025259495 -16.86348152 -41.99730682
rtoes  4.193254948 19.57449722 -102.3446045
lfemur  -10.45066738 -19.56557846 -18.69642639
ltibia  3.53497839 2.090418339 13.86431122
lfoot  0.5718196034 -28.78669548 31.23664093
ltoes  -8.447187424 -18.19514656 -115.4358444
102
root  34.93829862 36.53372216 -14.52718269 11.0404377 6.576787472 3.496222258
lowerback  -7.792250633 2.581850052 2.678309917
upperback  -4.210639954 2.900320053 -4.356550217
thorax  0.3660140038 1.201990008 -5.799839973
lowerneck  -15.45230007 1.074810028 2.459069967
upperneck  10.75230026 -0.0403489992 5.508850098
head  5.79693985 0.4494149983 1.340540051
lclavicle  0 -4.497500157e-015 -2.743230041e-014
lhumerus  -43.92269897 26.42889977 68.07810211
lradius  -0.4911792576 -6.507048965e-006 27.27030182
lwrist  4.824992743e-007 -3.790274832e-007 -31.04300117
lhand  -3.517361278e-031 -36.99560165 -10.65089989
lfingers  90 7.125020027 -90
lthumb  94.85567474 -25.48372269 101.1690292
rclavicle  0 -4.497500157e-015 -2.743230041e-014
rhumerus  46.08930206 3.04797864 -55.74259949
rradius  -5.16745672e-007 2.214343908e-008 78.4240036
rwrist  1.129822067e-006 0.001802438172 -175.9109955
rhand  -3.110928633e-031 4.159510136 -6.280340195
rfingers  -90 -7.125020027 -90
rthumb  -84.49314117 -9.600628853 -59.9691925
rfemur  -12.99157715 12.44488239 14.2775383
rtibia  -1.405219913 1.592085242 21.22685242
rfoot  -1.061280966 -16.82610512 -42.04265976
rtoes  4.16594553 19.57539177 -102.263092
lfemur  -10.51334095 -19.68880653 -18.63750458
ltibia  3.531592369 2.115323782 13.90612888
lfoot  0.5918238759 -28.84325981 31.19736862
ltoes  -8.460709572 -18.1890316 -115.4791565
103
root  34.93601581 36.53292618 -14.53358958 11.06975365 6.764764309 3.514904261
lowerback  -7.816910267 2.624959946 2.688640356
upperback  -4.245029926 2.955149889 -4.328760147
thorax  0.3496859968 1.228180051 -5.771230221
lowerneck  -15.3118 0.9836480021 2.290489912
upperneck  10.70849991 -0.1188179255 5.53993988
head  5.760509968 0.4045319855 1.368849993
lclavicle  0 -4.497500157e-015 -2.743230041e-014
lhumerus  -44.23059845 26.57959938 68.02110291
lradius  -0.4912417233 -6.507048965e-006 27.37609863
lwrist  4.824992743e-007 -3.790274832e-007 -31.33029938
lhand  -3.51417593e-031 -37.01330185 -10.68669987
lfingers  90 7.125020027 -90
lthumb  94.87164307 -25.51828384 101.191185
rclavicle  0 -4.497500157e-015 -2.743230041e-014
rhumerus  47.0591011 2.904870272 -55.03379822
rradius  -5.16745672e-007 2.214343908e-008 77.78079987
rwrist  1.129822067e-006 0.001802438172 -175.9810028
rhand  -3.119979203e-031 4.011980057 -6.147079945
rfingers  -90 -7.125020027 -90
rthumb  -84.46208191 -9.708098412 -60.10224533
rfemur  -13.03368473 12.38114643 14.30764484
rtibia  -1.451036692 1.623372793 21.29082298
rfoot  -1.108083725 -16.739851 -42.1573143
rtoes  4.170663357 19.57629585 -102.2771759
lfemur  -10.6421051 -19.80473137 -18.58257484
ltibia  3.494226456 2.129218578 14.01746082
lfoot  0.6067885756 -28.91218185 31.13538933
ltoes  -8.470198631 -18.18473244 -115.5095596
